# xmcd
#
# Track frame offsets:
#	150
#	14277
#	37425
#	58912
#	79965
#	102362
#	123080
#	137570
#	157830
#	176657
#	194800
#	212830
#	234925
#	261280
#
# Disc length: 3762 seconds
#
# Revision: 33
# Processed by: cddbd v1.5.2PL0 Copyright (c) Steve Scherf et al.
# Submitted via: EasyCDDAExtractor 15.3.0.1
#
DISCID=c90eb00e
DTITLE=Ricky Martin - Vuelve
DYEAR=1998
DGENRE=Latin
TTITLE0=Por Arriba, Por Abajo
TTITLE1=Vuelve
TTITLE2=Lola, Lola
TTITLE3=Casi Un Bolero
TTITLE4=Corazonado
TTITLE5=La Bomba
TTITLE6=Hagamos El Amor
TTITLE7=La Copa De La Vida (Spanish)
TTITLE8=Perdido Sin Ti
TTITLE9=Asi Es La Vida
TTITLE10=Marcia Baila
TTITLE11=No Importa La Distancia
TTITLE12=Gracias Por Pensar En Mi
TTITLE13=Casi Un Bolero (Instrumental)
EXTD=YEAR: 1998 ID3G: 86
EXTT0=
EXTT1=
EXTT2=
EXTT3=
EXTT4=
EXTT5=
EXTT6=
EXTT7=
EXTT8=
EXTT9=
EXTT10=
EXTT11=
EXTT12=
EXTT13=
PLAYORDER=
